<svg xmlns="http://www.w3.org/2000/svg" class="svg-logo" viewBox="0 0 600 600"><g data-element="wrapper" transform=""><g data-element="container"/><g><path id="fill_x5F_1_62_" fill="#FFFFFF" d="M553.4,114.6c0,196.5-100.7,369.4-253.4,469.9C147.3,484,46.6,311.1,46.6,114.6  c0-32.1,2.7-63.6,7.9-94.3C128.7,56.4,212,76.6,300,76.6s171.3-20.2,245.4-56.2C550.7,51,553.4,82.5,553.4,114.6z"/>
<path id="frame_x5F_1_62_" d="M540.6,25.9c5.2,30.1,7.8,60.9,7.8,92.4C548.4,311,449.7,480.5,300,579  C150.3,480.5,51.6,310.9,51.6,118.3c0-31.5,2.6-62.3,7.8-92.4C132.1,61.2,213.7,81,300,81S467.9,61.2,540.6,25.9 M46.1,0l-3.9,23  c-5.3,31-8,63.1-8,95.4c0,192,95.8,369.7,256.3,475.3l9.6,6.3l9.6-6.3C470.1,488,565.9,310.3,565.9,118.3c0-32.2-2.7-64.3-8-95.4  l-3.9-23l-21,10.2c-73,35.4-151.4,53.4-233,53.4s-160-18-233-53.4L46.1,0L46.1,0z M300,563.2l-2.5-1.7  C151.8,461,64.7,295.3,64.7,118.3c0-22.6,1.4-45.2,4.2-67.3l0.7-5.8l5.4,2.3c71,30.9,146.7,46.6,225,46.6s154-15.7,225-46.6l5.4-2.3  l0.7,5.8c2.8,22.1,4.2,44.7,4.2,67.3c0,177-87,342.7-232.8,443.2L300,563.2z M76.9,57.9c-2.3,19.9-3.4,40.2-3.4,60.4  c0,173.1,84.6,335.2,226.5,434.3c141.9-99,226.5-261.2,226.5-434.3c0-20.2-1.2-40.5-3.4-60.4c-70.5,29.9-145.6,45-223.1,45  C222.5,102.9,147.5,87.8,76.9,57.9z" fill="rgba(255, 226, 57, 1)"/></g><g><g data-element="icon"><path id="color_x5F_2" fill="#ffe239" d="M74.121,517.111c-1.695,0-3.265-1.836-2.207-3.726l108.17-193.021    c0.929-1.656-0.269-3.7-2.168-3.7H97.924c-2.08,0-3.24-2.401-1.946-4.03l39.957-50.327l19.728,11.3    c2.53,1.449,5.4,2.215,8.302,2.215c5.987,0,11.555-3.226,14.528-8.417c2.757-4.813,2.833-10.427,0.729-15.142    c5.275-0.583,10.033-3.649,12.702-8.308c2.221-3.878,2.798-8.387,1.627-12.699c-0.23-0.847-0.54-1.656-0.89-2.442    c5.271-0.584,10.026-3.65,12.693-8.307c2.22-3.877,2.799-8.387,1.627-12.7c-0.247-0.908-0.58-1.775-0.964-2.613    c5.344-0.533,10.179-3.616,12.875-8.325c0.333-0.581,0.617-1.179,0.875-1.785c2.181,1.691,4.372,3.372,6.567,5.046    c-0.198,0.372-0.395,0.741-0.59,1.122c-0.533,1.044-1.037,2.097-1.513,3.16c-0.957,2.126-1.82,4.286-2.586,6.48    c-0.382,1.098-0.746,2.201-1.078,3.315c-0.026,0.089-0.052,0.179-0.079,0.269l-22.83,46.571c-0.811,1.65,0.392,3.579,2.23,3.579    h94.46c2.145,0,3.282,2.535,1.856,4.138L75.938,516.252C75.402,516.855,74.753,517.111,74.121,517.111z M285.548,81.767    c0.93-1.895-0.633-3.603-2.278-3.603c-0.674,0-1.362,0.287-1.9,0.963l-59.998,75.57l1.38,1.123c2.825,2.262,5.786,4.482,8.753,6.699    c2.964,2.231,5.942,4.488,8.864,6.854c0.534,0.43,1.061,0.87,1.589,1.31L285.548,81.767z"/> <path id="color_x5F_1" fill="#0268ad" d="M155.639,169.342c-0.656-2.414-0.333-4.938,0.91-7.107l0.927-1.617    c1.665-2.907,4.781-4.712,8.135-4.712c1.621,0,3.225,0.429,4.643,1.241l19.707,11.288c-0.394,0.679-0.767,1.35-1.126,2.021    c-0.904,1.697-1.737,3.399-2.553,5.113c-1.627,3.424-3.128,6.901-4.449,10.499c-0.145,0.396-0.276,0.8-0.417,1.2l-21.396-12.255    C157.851,173.769,156.294,171.756,155.639,169.342z M151.134,201.316l4.646,2.661c0,0,0.004,0.002,0.006,0.003l29.935,17.146    c1.559,0.894,3.323,1.364,5.105,1.365c3.687,0,7.114-1.986,8.945-5.182c1.366-2.385,1.721-5.16,1-7.814    c-0.218-0.802-0.537-1.557-0.926-2.268c-1.593,0.612-3.274,1.001-4.934,1.148c-2.3,0.176-4.361-0.043-6.479-0.549    c-2.089-0.528-4.194-1.344-6.134-2.874c-0.959-0.787-1.86-1.719-2.542-2.979c-0.097-0.19-0.248-0.526-0.315-0.725    c-0.064-0.191-0.138-0.398-0.179-0.578c-0.099-0.375-0.164-0.729-0.204-1.062c-0.085-0.671-0.096-1.279-0.079-1.86    c0.061-1.412,0.268-2.684,0.529-3.907l-18.143-10.392c-1.416-0.813-3.021-1.241-4.641-1.241c-3.354,0-6.473,1.805-8.138,4.711    l-0.926,1.617C145.097,193.018,146.653,198.75,151.134,201.316z M142.355,227.429l29.935,17.146    c1.558,0.893,3.323,1.363,5.104,1.363c3.688,0,7.115-1.984,8.945-5.18c1.367-2.385,1.722-5.161,1.002-7.814    c-0.721-2.653-2.433-4.867-4.819-6.234l-29.934-17.146c-1.417-0.811-3.022-1.24-4.642-1.24c-3.354,0-6.472,1.805-8.136,4.711    l-0.925,1.616c-1.244,2.17-1.567,4.694-0.912,7.108S140.186,226.187,142.355,227.429z M158.86,268.024    c1.558,0.893,3.322,1.364,5.104,1.364c3.688,0,7.115-1.984,8.946-5.18c2.821-4.925,1.109-11.228-3.817-14.049l-22.956-13.148    c-1.417-0.812-3.022-1.241-4.643-1.241c-3.353,0-6.471,1.805-8.135,4.712l-0.926,1.617c-1.243,2.169-1.566,4.693-0.91,7.107    c0.655,2.414,2.211,4.426,4.381,5.669L158.86,268.024z M463.67,104.236c-31.12-5.501-62.426,16.882-74.875,45.929    c-5.747,13.411-8.154,27.791-8.172,42.358c0.122,3.955,0.4,7.935,0.821,11.907c0.689,5.475,1.646,10.927,3.024,16.189    c1.452,5.227,3.156,10.324,5.354,15.02c0.246,0.604,0.528,1.183,0.833,1.745c0.295,0.571,0.588,1.139,0.88,1.704    c0.588,1.13,1.138,2.275,1.819,3.318c0.649,1.068,1.293,2.125,1.929,3.169c0.675,1.018,1.403,1.978,2.091,2.955    c0.348,0.485,0.693,0.968,1.037,1.448c0.349,0.475,0.746,0.902,1.113,1.352c0.75,0.889,1.488,1.765,2.213,2.626    c0.744,0.847,1.561,1.596,2.317,2.381c0.384,0.387,0.765,0.771,1.143,1.15c0.372,0.387,0.751,0.759,1.161,1.085    c0.801,0.681,1.586,1.346,2.352,1.997c0.385,0.328,0.765,0.65,1.141,0.971c0.38,0.313,0.791,0.574,1.178,0.858    c0.784,0.558,1.549,1.101,2.292,1.63c0.373,0.265,0.74,0.526,1.103,0.784c0.365,0.253,0.754,0.453,1.121,0.678    c1.486,0.864,2.869,1.707,4.177,2.437c1.353,0.646,2.595,1.238,3.717,1.774c0.565,0.265,1.093,0.534,1.603,0.753    c0.52,0.197,1.006,0.38,1.459,0.551c0.909,0.343,1.682,0.635,2.309,0.872c1.257,0.475,1.928,0.727,1.928,0.727    s-0.692-0.181-1.99-0.522c-0.651-0.171-1.454-0.382-2.397-0.63c-0.474-0.125-0.981-0.258-1.524-0.402    c-0.534-0.168-1.09-0.381-1.685-0.587c-1.189-0.424-2.507-0.893-3.942-1.403c-1.397-0.599-2.89-1.305-4.503-2.034    c-0.399-0.189-0.82-0.356-1.222-0.575c-0.396-0.224-0.8-0.452-1.209-0.683c-0.82-0.463-1.664-0.94-2.531-1.431    c-0.43-0.252-0.884-0.48-1.311-0.762c-0.422-0.289-0.849-0.58-1.281-0.876c-0.865-0.593-1.752-1.2-2.657-1.821    c-0.465-0.298-0.899-0.642-1.328-1.002c-0.435-0.355-0.872-0.713-1.316-1.074c-0.875-0.736-1.817-1.44-2.689-2.246    c-0.857-0.825-1.729-1.665-2.614-2.517c-0.437-0.433-0.905-0.846-1.326-1.307c-0.415-0.467-0.832-0.938-1.253-1.411    c-0.833-0.954-1.715-1.899-2.543-2.905c-0.791-1.037-1.591-2.086-2.399-3.148c-0.371-0.458-0.709-0.942-1.043-1.431    c-7.425,6.991-13.202,15.352-17.397,24.521c0.754,0.611,1.509,1.239,2.248,1.91c3.202,2.706,6.341,5.82,9.489,9.102    c3.105,3.331,6.119,6.933,8.993,10.721c2.827,3.827,5.494,7.846,7.937,11.986c2.4,4.166,4.566,8.451,6.478,12.754    c1.866,4.324,3.467,8.666,4.805,12.923c1.261,4.281,2.382,8.439,3.112,12.449c0.439,1.987,0.677,3.958,1.004,5.839    c0.251,1.895,0.473,3.728,0.658,5.485c0.129,1.767,0.305,3.45,0.373,5.059c0.054,1.61,0.145,3.132,0.156,4.563    c-0.002,1.432-0.005,2.771-0.007,4.009c-0.05,1.237-0.095,2.371-0.135,3.397c-0.055,2.049-0.261,3.65-0.332,4.742    c-0.092,1.092-0.141,1.674-0.141,1.674s-0.006-0.584-0.015-1.68c-0.029-1.096,0.029-2.699-0.105-4.738    c-0.053-1.018-0.111-2.146-0.176-3.372c-0.11-1.222-0.229-2.544-0.357-3.956c-0.143-1.408-0.371-2.9-0.568-4.473    c-0.213-1.572-0.54-3.21-0.822-4.922c-0.342-1.703-0.723-3.471-1.137-5.292c-0.49-1.806-0.893-3.692-1.499-5.583    c-1.065-3.817-2.522-7.736-4.109-11.73c-1.663-3.971-3.577-7.977-5.729-11.924c-2.198-3.924-4.62-7.785-7.24-11.497    c-2.661-3.685-5.507-7.216-8.467-10.536c-3.006-3.281-6.106-6.359-9.252-9.165c-3.187-2.757-6.319-5.347-9.476-7.546    c-1.534-1.155-3.13-2.138-4.616-3.153c-1.521-0.969-3.014-1.869-4.441-2.729c-1.464-0.806-2.838-1.617-4.186-2.317    c-1.356-0.682-2.626-1.358-3.844-1.941c-1.226-0.565-2.372-1.095-3.433-1.583c-0.638-0.266-1.232-0.514-1.806-0.753    c-4.439-1.637-8.936-3.234-13.464-4.783c-4.672-1.598-9.359-3.265-13.978-4.951c-26.228-9.579-50.137-19.822-55.245-22.032    c2.963-18.078,2.565-35.551-3.854-44.737c-0.851-0.978-1.743-1.922-2.657-2.843c-1.006-1-2.055-1.959-3.121-2.905    c-3.223-2.681-7.332-5.804-11.688-9.004l0.142-0.289c-0.774-0.556-1.552-1.108-2.333-1.658c-3.002-2.096-6.104-4.087-9.206-6.118    c-3.105-2.038-6.213-4.081-9.318-6.271l-2.281-1.635c-0.402-0.301-0.701-0.477-1.003-0.688c-0.305-0.21-0.623-0.354-0.928-0.541    c-1.254-0.604-2.483-0.889-3.724-0.793c-2.471,0.158-5.226,1.804-7.613,4.098c-2.413,2.283-4.605,5.051-6.596,7.995l-0.735,1.107    l-0.726,1.129c-0.447,0.713-0.893,1.484-1.326,2.261c-0.867,1.561-1.707,3.167-2.501,4.793c-1.584,3.257-3.054,6.584-4.319,9.937    c-0.63,1.675-1.206,3.361-1.676,5.03c-0.465,1.655-0.839,3.356-0.905,4.775c-0.729,1.566,2,3.527,4.965,4.239    c1.478,0.384,3.152,0.547,4.551,0.448c1.545-0.125,3-0.508,4.362-1.152c2.733-1.274,5.042-3.678,7.08-6.49    c2.063-2.814,3.872-6.015,6.014-9.219l1.654-2.474l2.283,1.839c5.113,4.119,10.269,8.184,15.348,12.346l1.791,1.468l-1.24,1.867    c-0.536,0.807-1.116,1.791-1.64,2.723c-0.533,0.947-1.045,1.914-1.533,2.894c-0.979,1.958-1.876,3.964-2.684,6.005    c-0.667,1.681-1.253,3.391-1.798,5.115c-0.366,1.948-0.706,3.899-1.026,5.85l-1.088,2.221c-0.181,0.883-0.358,1.766-0.509,2.655    c-0.18,1.085-0.337,2.175-0.453,3.27c-0.127,1.094-0.228,2.193-0.309,3.294c-0.063,1.103-0.121,2.208-0.117,3.314    c-0.049,1.111,0.016,2.217,0.028,3.332c0.094,1.104,0.102,2.229,0.241,3.337c0.1,1.118,0.246,2.224,0.414,3.336    c0.142,1.116,0.394,2.234,0.578,3.354c-0.427-1.055-0.933-2.072-1.28-3.163l-0.565-1.629l-0.466-1.656    c-0.336-1.102-0.542-2.232-0.792-3.36c-0.179-1.136-0.409-2.273-0.524-3.423c-0.146-1.148-0.219-2.302-0.289-3.46    c-0.011-0.294-0.02-0.591-0.032-0.886l-12.002,24.482h88.511c3.413,0,6.521,2.013,7.918,5.126c1.397,3.114,0.834,6.774-1.436,9.324    l-47.378,53.234c11.528,21.466,45.163,77.766,86.221,89.168c15.881,4.409,44.709,9.668,60.14,6.225    c12.141-2.709,21.085,14.168,37.791-2.398c0.92-0.912,1.683-1.889,2.33-2.911c23.32-17.067,40.552-41.974,52.119-68.626    c13.17-30.345,19.634-63.113,25.378-95.69c5.08-28.812,9.644-58.625,2.828-87.077C513.445,136.355,492.479,109.329,463.67,104.236z"/></g></g></g></svg>